# File created by Blade
# Date/Time:  Wed Sep 24 20:26:02 2014
# Frame Rate: 120.000 fps
#------------------------------------------------------
:FULLY-SPECIFIED
:DEGREES
822
root -6.316292 33.618866 0.559587 182.886132 -62.001653 -78.514851
Spine -33.756679 15.976080 -2.372388
Head -90.740608 15.821161 3.561186
LeftShoulder -12.569700 24.620498 14.291260
LeftArm -7.764055 41.950595 -79.490186
LeftForeArm 18.119101 -0.000000 10.633869
LeftHand -28.270482 0.000000 -12.260374
LeftHandThumb1 -26.253704 0.000000 33.147579
RightShoulder -21.119560 11.199259 -22.164033
RightArm -35.945530 -26.502638 98.209370
RightForeArm -35.099996 0.000000 12.210518
RightHand -6.023301 -0.000000 27.547661
RightHandThumb1 -24.326973 -0.000000 -32.862282
LeftUpLeg -99.204597 21.591770 4.583059
LeftLeg -7.313545 -0.000000 0.000000
LeftFoot -5.644743 24.380720 0.744271
LeftToeBase 3.794140 -0.000000 -0.000000
RightUpLeg 14.112298 -5.756612 -18.469552
RightLeg 23.751049 -0.000000 -0.000000
RightFoot 42.803625 1.829084 2.507567
RightToeBase 18.870633 -0.000000 -0.000000
823
root -6.319950 33.622960 0.553101 182.890436 -62.026719 -78.442221
Spine -33.761600 16.039821 -2.320708
Head -90.944890 15.728459 3.374107
LeftShoulder -12.635755 24.577708 14.242453
LeftArm -7.687532 42.023137 -79.432916
LeftForeArm 18.132367 -0.000000 10.628735
LeftHand -28.278276 -0.000000 -12.330406
LeftHandThumb1 -26.253704 0.000000 33.147579
RightShoulder -21.181390 11.230635 -22.238432
RightArm -35.822951 -26.406058 98.141545
RightForeArm -34.911614 0.000000 12.231972
RightHand -6.114127 -0.000000 27.321198
RightHandThumb1 -24.326973 -0.000000 -32.862282
LeftUpLeg -99.269937 21.579025 4.600924
LeftLeg -7.313926 -0.000000 0.000000
LeftFoot -5.571567 24.442764 0.880688
LeftToeBase 3.853076 -0.000000 -0.000000
RightUpLeg 14.060813 -5.678055 -18.334138
RightLeg 23.733607 -0.000000 -0.000000
RightFoot 42.768140 1.742336 2.509128
RightToeBase 18.886513 -0.000000 -0.000000
824
root -6.321643 33.624148 0.545294 182.906944 -62.091402 -78.409434
Spine -33.748162 16.043641 -2.291077
Head -91.119085 15.724298 3.226745
LeftShoulder -12.682266 24.537417 14.239878
LeftArm -7.642833 41.935321 -79.409808
LeftForeArm 18.189597 0.000000 10.673069
LeftHand -28.356907 -0.000000 -12.206379
LeftHandThumb1 -26.253704 0.000000 33.147579
RightShoulder -21.248919 11.176489 -22.273597
RightArm -35.569662 -26.258768 97.975569
RightForeArm -34.808200 -0.000000 12.190936
RightHand -6.189319 -0.000000 27.186682
RightHandThumb1 -24.326973 -0.000000 -32.862282
LeftUpLeg -99.310136 21.532382 4.631432
LeftLeg -7.314724 -0.000000 0.000000
LeftFoot -5.514070 24.485150 0.947420
LeftToeBase 3.861166 -0.000000 -0.000000
RightUpLeg 14.059306 -5.645189 -18.231286
RightLeg 23.706972 -0.000000 -0.000000
RightFoot 42.769087 1.707203 2.493196
RightToeBase 18.857549 -0.000000 -0.000000
825
root -6.323128 33.623554 0.535239 182.967939 -62.161870 -78.435998
Spine -33.740843 16.028629 -2.311890
Head -91.262068 15.753783 3.172380
LeftShoulder -12.687524 24.506367 14.245677
LeftArm -7.640685 41.718450 -79.378223
LeftForeArm 18.292171 -0.000000 10.775653
LeftHand -28.452691 -0.000000 -11.990405
LeftHandThumb1 -26.253704 0.000000 33.147579
RightShoulder -21.334444 11.136215 -22.322587
RightArm -35.391898 -26.228994 97.978056
RightForeArm -34.692873 -0.000000 12.195368
RightHand -6.378234 -0.000000 27.153075
RightHandThumb1 -24.326973 -0.000000 -32.862282
LeftUpLeg -99.321927 21.486506 4.654202
LeftLeg -7.340627 -0.000000 0.000000
LeftFoot -5.469187 24.532834 0.966670
LeftToeBase 3.852551 -0.000000 -0.000000
RightUpLeg 14.058820 -5.623791 -18.154423
RightLeg 23.723874 -0.000000 -0.000000
RightFoot 42.750574 1.711226 2.474488
RightToeBase 19.194287 -0.000000 -0.000000
826
root -6.325519 33.621580 0.521852 183.013935 -62.211532 -78.460062
Spine -33.740847 16.038864 -2.349155
Head -91.309693 15.845091 3.154616
LeftShoulder -12.674530 24.528574 14.224297
LeftArm -7.554477 41.516307 -79.271029
LeftForeArm 18.272856 -0.000000 10.815757
LeftHand -28.720563 0.000000 -11.821191
LeftHandThumb1 -26.253704 0.000000 33.147579
RightShoulder -21.475084 11.089147 -22.352569
RightArm -35.201806 -26.253830 97.982450
RightForeArm -34.755166 -0.000000 12.120054
RightHand -6.311278 -0.000000 27.254033
RightHandThumb1 -24.326973 -0.000000 -32.862282
LeftUpLeg -99.302280 21.477993 4.715898
LeftLeg -7.369845 -0.000000 0.000000
LeftFoot -5.462250 24.570479 0.941680
LeftToeBase 3.854175 -0.000000 -0.000000
RightUpLeg 14.058050 -5.582675 -18.069316
RightLeg 23.754941 -0.000000 -0.000000
RightFoot 42.804301 1.660942 2.489293
RightToeBase 18.928618 -0.000000 -0.000000
